<svg xmlns="http://www.w3.org/2000/svg" viewBox="0 0 32 32" id="next-arrow">
  <circle cx="16" cy="16" r="15" fill="#eef5fd"></circle>
  <circle cx="16" cy="16" r="15" fill="#eef5fd"></circle>
  <path fill="#d7e2f2" d="M31,16A15,15,0,0,0,16,1V31A15,15,0,0,0,31,16Z"></path>
  <path fill="#ffc661" d="M17.53,15.15l-8-5A1,1,0,0,0,8,11V21a1,1,0,0,0,.52.88,1,1,0,0,0,1,0l8-5a1,1,0,0,0,0-1.7Z"></path>
  <path fill="#e49f4e" d="M25.53,15.15l-8-5A1,1,0,0,0,16,11V21a1,1,0,0,0,.52.88,1,1,0,0,0,1,0l8-5a1,1,0,0,0,0-1.7Z"></path>
</svg>
